<svg width="24" height="32" viewBox="0 0 24 32" fill="none" xmlns="http://www.w3.org/2000/svg">
<path d="M22.3925 16.4694L23.6125 17.6895C24.1292 18.2061 24.1292 19.0414 23.6125 19.5526L12.9343 30.2363C12.4177 30.7529 11.5823 30.7529 11.0712 30.2363L0.387451 19.5526C-0.12915 19.036 -0.12915 18.2006 0.387451 17.6895L1.60751 16.4694C2.12961 15.9473 2.98145 15.9583 3.49256 16.4914L9.80169 23.1138V7.31898C9.80169 6.58805 10.3897 6 11.1207 6H12.8793C13.6103 6 14.1983 6.58805 14.1983 7.31898V23.1138L20.5074 16.4914C21.0185 15.9528 21.8704 15.9418 22.3925 16.4694Z" fill="white"/>
<path d="M9.80005 1C9.80005 0.447715 10.2478 0 10.8 0H13.2C13.7523 0 14.2 0.447715 14.2 1V11H9.80005V1Z" fill="white"/>
<path d="M1 32C0.447716 32 -1.95703e-08 31.5523 -4.37114e-08 31L-1.31134e-07 29C-1.55275e-07 28.4477 0.447715 28 1 28L23 28C23.5523 28 24 28.4477 24 29L24 31C24 31.5523 23.5523 32 23 32L1 32Z" fill="white"/>
</svg>
